<svg width="394" height="181" viewBox="0 0 394 181" fill="none" xmlns="http://www.w3.org/2000/svg">
<path d="M350.473 104.5H311.973L246.973 39L225.973 60L206.473 41.5L246.973 0.5L350.473 104.5Z" fill="#252525"/>
<path d="M213.473 104.5H252.973L148.473 0L43.4727 104.5H83.4727L148.473 39L213.473 104.5Z" fill="#03C064"/>
<path d="M82.4727 17.5H110.473V25L82.4727 50V17.5Z" fill="#03C064"/>
<rect x="136.473" y="69.5" width="9" height="9" fill="#252525"/>
<rect x="152.473" y="69.5" width="9" height="9" fill="#252525"/>
<rect x="152.473" y="84.5" width="9" height="9" fill="#252525"/>
<rect x="136.473" y="84.5" width="9" height="9" fill="#252525"/>
<path d="M17.2626 139.122C18.9379 139.122 20.3582 138.916 21.5237 138.503C22.7133 138.066 23.6845 137.471 24.4372 136.719C25.1898 135.966 25.7361 135.092 26.076 134.096C26.416 133.077 26.5859 131.984 26.5859 130.819C26.5859 128.488 25.8211 126.667 24.2915 125.356C22.7862 124.045 20.4432 123.389 17.2626 123.389H12.3096V139.122H17.2626ZM43.4115 167.238H32.2673C30.2035 167.238 28.7225 166.461 27.8242 164.907L19.0107 149.502C18.598 148.846 18.1367 148.373 17.6268 148.081C17.117 147.766 16.3886 147.608 15.4417 147.608H12.3096V167.238H0V114.175H17.2626C21.0988 114.175 24.3643 114.576 27.0594 115.377C29.7786 116.154 31.9881 117.247 33.6876 118.655C35.4115 120.063 36.6618 121.726 37.4388 123.644C38.2157 125.562 38.6042 127.65 38.6042 129.908C38.6042 131.632 38.3735 133.259 37.9122 134.788C37.4509 136.318 36.7711 137.738 35.8728 139.049C34.9744 140.336 33.8576 141.49 32.5222 142.509C31.2111 143.529 29.6937 144.367 27.9698 145.022C28.771 145.435 29.5237 145.957 30.2278 146.588C30.9319 147.195 31.5632 147.924 32.1216 148.773L43.4115 167.238Z" fill="#03C064"/>
<path d="M67.5608 143.82C67.5608 142.922 67.4394 142.048 67.1966 141.198C66.978 140.348 66.6017 139.596 66.0676 138.94C65.5577 138.26 64.8779 137.714 64.0281 137.301C63.1783 136.889 62.1465 136.682 60.9325 136.682C58.7959 136.682 57.1206 137.301 55.9067 138.54C54.6927 139.754 53.8915 141.514 53.503 143.82H67.5608ZM53.3573 150.376C53.7215 153.532 54.6805 155.827 56.2344 157.259C57.7883 158.667 59.7914 159.371 62.2436 159.371C63.5547 159.371 64.6836 159.214 65.6305 158.898C66.5774 158.582 67.4151 158.23 68.1435 157.842C68.8961 157.453 69.5759 157.101 70.1829 156.786C70.8142 156.47 71.4697 156.312 72.1496 156.312C73.0479 156.312 73.7277 156.64 74.189 157.295L77.4667 161.338C76.3013 162.673 75.0388 163.766 73.6792 164.616C72.3438 165.441 70.9599 166.097 69.5274 166.582C68.1192 167.044 66.6988 167.359 65.2663 167.529C63.8581 167.723 62.5106 167.821 61.2238 167.821C58.5774 167.821 56.0887 167.396 53.7579 166.546C51.4514 165.672 49.4241 164.385 47.6759 162.685C45.9521 160.986 44.5803 158.874 43.5606 156.349C42.5651 153.823 42.0674 150.886 42.0674 147.535C42.0674 145.01 42.4923 142.619 43.3421 140.361C44.2161 138.103 45.4544 136.124 47.0568 134.424C48.6835 132.725 50.638 131.377 52.9203 130.382C55.2268 129.386 57.8247 128.889 60.714 128.889C63.2147 128.889 65.497 129.277 67.5608 130.054C69.6488 130.831 71.4333 131.96 72.9144 133.441C74.4197 134.922 75.5851 136.743 76.4106 138.904C77.2604 141.04 77.6852 143.468 77.6852 146.188C77.6852 147.037 77.6488 147.729 77.576 148.264C77.5032 148.798 77.3696 149.223 77.1754 149.538C76.9811 149.854 76.7141 150.072 76.3742 150.194C76.0585 150.315 75.6458 150.376 75.1359 150.376H53.3573Z" fill="#03C064"/>
<path d="M102.819 151.869C100.561 151.966 98.7036 152.16 97.2468 152.452C95.7901 152.743 94.6368 153.107 93.787 153.544C92.9372 153.981 92.3424 154.479 92.0025 155.037C91.6869 155.596 91.529 156.203 91.529 156.858C91.529 158.145 91.8811 159.056 92.5852 159.59C93.2893 160.1 94.3212 160.355 95.6808 160.355C97.1376 160.355 98.4122 160.1 99.5048 159.59C100.597 159.08 101.702 158.254 102.819 157.113V151.869ZM82.4971 134.716C84.7794 132.7 87.3044 131.207 90.0723 130.236C92.8644 129.241 95.8508 128.743 99.0314 128.743C101.314 128.743 103.365 129.119 105.186 129.872C107.031 130.6 108.585 131.632 109.848 132.968C111.135 134.279 112.118 135.845 112.798 137.666C113.478 139.487 113.817 141.477 113.817 143.638V167.238H108.646C107.578 167.238 106.764 167.092 106.206 166.801C105.672 166.509 105.223 165.902 104.858 164.98L104.057 162.904C103.11 163.705 102.2 164.409 101.326 165.016C100.452 165.623 99.5412 166.145 98.5943 166.582C97.6717 166.995 96.6763 167.299 95.608 167.493C94.564 167.711 93.3985 167.821 92.1117 167.821C90.3879 167.821 88.8219 167.602 87.4137 167.165C86.0055 166.704 84.8037 166.036 83.8082 165.162C82.837 164.288 82.0844 163.207 81.5502 161.921C81.0161 160.61 80.749 159.104 80.749 157.405C80.749 156.045 81.0889 154.673 81.7687 153.289C82.4486 151.881 83.6261 150.606 85.3014 149.465C86.9767 148.3 89.2346 147.329 92.0753 146.552C94.916 145.775 98.4972 145.338 102.819 145.241V143.638C102.819 141.429 102.358 139.839 101.435 138.867C100.537 137.872 99.2499 137.374 97.5746 137.374C96.2392 137.374 95.1467 137.52 94.2969 137.811C93.4471 138.103 92.6823 138.43 92.0025 138.795C91.3469 139.159 90.7035 139.487 90.0723 139.778C89.441 140.069 88.6883 140.215 87.8143 140.215C87.0374 140.215 86.3818 140.021 85.8477 139.632C85.3135 139.244 84.8765 138.782 84.5366 138.248L82.4971 134.716Z" fill="#03C064"/>
<path d="M132.324 112.719V167.238H121.034V112.719H132.324Z" fill="#03C064"/>
<path d="M172.673 157.405V167.238H140.697V114.175H153.007V157.405H172.673Z" fill="#252525"/>
<path d="M197.139 151.869C194.881 151.966 193.023 152.16 191.566 152.452C190.11 152.743 188.956 153.107 188.107 153.544C187.257 153.981 186.662 154.479 186.322 155.037C186.006 155.596 185.849 156.203 185.849 156.858C185.849 158.145 186.201 159.056 186.905 159.59C187.609 160.1 188.641 160.355 190 160.355C191.457 160.355 192.732 160.1 193.824 159.59C194.917 159.08 196.022 158.254 197.139 157.113V151.869ZM176.817 134.716C179.099 132.7 181.624 131.207 184.392 130.236C187.184 129.241 190.17 128.743 193.351 128.743C195.633 128.743 197.685 129.119 199.506 129.872C201.351 130.6 202.905 131.632 204.167 132.968C205.454 134.279 206.438 135.845 207.117 137.666C207.797 139.487 208.137 141.477 208.137 143.638V167.238H202.966C201.897 167.238 201.084 167.092 200.526 166.801C199.991 166.509 199.542 165.902 199.178 164.98L198.377 162.904C197.43 163.705 196.519 164.409 195.645 165.016C194.771 165.623 193.861 166.145 192.914 166.582C191.991 166.995 190.996 167.299 189.928 167.493C188.884 167.711 187.718 167.821 186.431 167.821C184.708 167.821 183.142 167.602 181.733 167.165C180.325 166.704 179.123 166.036 178.128 165.162C177.157 164.288 176.404 163.207 175.87 161.921C175.336 160.61 175.069 159.104 175.069 157.405C175.069 156.045 175.409 154.673 176.088 153.289C176.768 151.881 177.946 150.606 179.621 149.465C181.296 148.3 183.554 147.329 186.395 146.552C189.236 145.775 192.817 145.338 197.139 145.241V143.638C197.139 141.429 196.677 139.839 195.755 138.867C194.856 137.872 193.57 137.374 191.894 137.374C190.559 137.374 189.466 137.52 188.617 137.811C187.767 138.103 187.002 138.43 186.322 138.795C185.667 139.159 185.023 139.487 184.392 139.778C183.761 140.069 183.008 140.215 182.134 140.215C181.357 140.215 180.701 140.021 180.167 139.632C179.633 139.244 179.196 138.782 178.856 138.248L176.817 134.716Z" fill="#252525"/>
<path d="M225.77 133.55C226.498 132.87 227.251 132.239 228.028 131.656C228.805 131.074 229.63 130.588 230.504 130.2C231.402 129.787 232.361 129.471 233.381 129.253C234.425 129.01 235.554 128.889 236.768 128.889C238.832 128.889 240.653 129.253 242.231 129.981C243.834 130.685 245.181 131.681 246.274 132.968C247.366 134.23 248.192 135.747 248.75 137.52C249.309 139.268 249.588 141.174 249.588 143.238V167.238H238.298V143.238C238.298 141.392 237.873 139.96 237.023 138.94C236.173 137.896 234.923 137.374 233.272 137.374C232.034 137.374 230.868 137.641 229.776 138.175C228.707 138.685 227.663 139.389 226.644 140.288V167.238H215.354V129.471H222.346C223.754 129.471 224.677 130.103 225.114 131.365L225.77 133.55Z" fill="#252525"/>
<path d="M279.802 139.596C278.952 138.649 278.029 137.993 277.034 137.629C276.039 137.241 274.995 137.046 273.902 137.046C272.858 137.046 271.899 137.253 271.025 137.666C270.151 138.078 269.386 138.746 268.73 139.669C268.099 140.567 267.601 141.744 267.237 143.201C266.873 144.658 266.691 146.418 266.691 148.482C266.691 150.473 266.837 152.148 267.128 153.508C267.419 154.867 267.82 155.972 268.33 156.822C268.864 157.647 269.495 158.242 270.224 158.607C270.952 158.971 271.765 159.153 272.664 159.153C273.489 159.153 274.23 159.08 274.885 158.934C275.565 158.764 276.184 158.534 276.743 158.242C277.301 157.951 277.823 157.587 278.309 157.15C278.819 156.688 279.316 156.166 279.802 155.584V139.596ZM291.092 112.719V167.238H284.099C282.691 167.238 281.768 166.607 281.331 165.344L280.457 162.467C279.705 163.268 278.916 163.997 278.09 164.652C277.265 165.308 276.366 165.878 275.395 166.364C274.448 166.825 273.416 167.177 272.3 167.42C271.207 167.687 270.017 167.821 268.73 167.821C266.764 167.821 264.943 167.384 263.268 166.509C261.592 165.635 260.148 164.373 258.934 162.722C257.72 161.071 256.761 159.056 256.057 156.676C255.377 154.273 255.037 151.541 255.037 148.482C255.037 145.666 255.425 143.056 256.202 140.652C256.979 138.224 258.072 136.136 259.48 134.388C260.912 132.615 262.624 131.232 264.615 130.236C266.606 129.241 268.803 128.743 271.207 128.743C273.174 128.743 274.825 129.022 276.16 129.581C277.495 130.139 278.709 130.892 279.802 131.839V112.719H291.092Z" fill="#252525"/>
<path d="M310.264 129.471V167.238H298.974V129.471H310.264ZM311.43 119.128C311.43 120.027 311.247 120.876 310.883 121.678C310.519 122.455 310.021 123.147 309.39 123.753C308.759 124.336 308.018 124.81 307.168 125.174C306.343 125.514 305.457 125.684 304.51 125.684C303.587 125.684 302.725 125.514 301.924 125.174C301.123 124.81 300.407 124.336 299.775 123.753C299.168 123.147 298.683 122.455 298.319 121.678C297.979 120.876 297.809 120.027 297.809 119.128C297.809 118.206 297.979 117.344 298.319 116.543C298.683 115.741 299.168 115.037 299.775 114.43C300.407 113.823 301.123 113.35 301.924 113.01C302.725 112.67 303.587 112.5 304.51 112.5C305.457 112.5 306.343 112.67 307.168 113.01C308.018 113.35 308.759 113.823 309.39 114.43C310.021 115.037 310.519 115.741 310.883 116.543C311.247 117.344 311.43 118.206 311.43 119.128Z" fill="#252525"/>
<path d="M328.554 133.55C329.282 132.87 330.035 132.239 330.812 131.656C331.589 131.074 332.414 130.588 333.288 130.2C334.187 129.787 335.146 129.471 336.165 129.253C337.209 129.01 338.338 128.889 339.552 128.889C341.616 128.889 343.437 129.253 345.015 129.981C346.618 130.685 347.965 131.681 349.058 132.968C350.15 134.23 350.976 135.747 351.534 137.52C352.093 139.268 352.372 141.174 352.372 143.238V167.238H341.082V143.238C341.082 141.392 340.657 139.96 339.807 138.94C338.958 137.896 337.707 137.374 336.056 137.374C334.818 137.374 333.653 137.641 332.56 138.175C331.492 138.685 330.448 139.389 329.428 140.288V167.238H318.138V129.471H325.13C326.539 129.471 327.461 130.103 327.898 131.365L328.554 133.55Z" fill="#252525"/>
<path d="M374.064 146.37C375.934 146.37 377.281 145.908 378.107 144.986C378.956 144.039 379.381 142.825 379.381 141.344C379.381 139.814 378.956 138.612 378.107 137.738C377.281 136.864 375.934 136.427 374.064 136.427C372.195 136.427 370.835 136.864 369.985 137.738C369.16 138.612 368.747 139.814 368.747 141.344C368.747 142.072 368.844 142.74 369.038 143.347C369.257 143.954 369.584 144.488 370.022 144.949C370.459 145.386 371.005 145.738 371.66 146.006C372.34 146.248 373.141 146.37 374.064 146.37ZM382.805 168.622C382.805 167.723 382.404 167.08 381.603 166.692C380.802 166.279 379.758 165.987 378.471 165.817C377.184 165.648 375.739 165.55 374.137 165.526C372.559 165.478 370.981 165.38 369.402 165.235C368.698 165.72 368.116 166.267 367.654 166.874C367.217 167.456 366.999 168.124 366.999 168.877C366.999 169.411 367.108 169.896 367.327 170.333C367.569 170.77 367.982 171.147 368.565 171.462C369.147 171.778 369.924 172.021 370.896 172.191C371.891 172.385 373.141 172.482 374.647 172.482C376.273 172.482 377.609 172.385 378.653 172.191C379.697 171.997 380.522 171.73 381.129 171.39C381.761 171.05 382.198 170.637 382.44 170.151C382.683 169.69 382.805 169.18 382.805 168.622ZM393.949 130.637V134.752C393.949 135.383 393.767 135.881 393.403 136.245C393.063 136.609 392.468 136.889 391.618 137.083L388.887 137.702C389.032 138.236 389.142 138.782 389.214 139.341C389.311 139.899 389.36 140.482 389.36 141.089C389.36 142.983 388.959 144.682 388.158 146.188C387.381 147.693 386.301 148.98 384.917 150.048C383.557 151.092 381.943 151.905 380.073 152.488C378.204 153.047 376.201 153.326 374.064 153.326C373.481 153.326 372.911 153.314 372.352 153.289C371.794 153.241 371.248 153.168 370.713 153.071C369.888 153.581 369.475 154.151 369.475 154.783C369.475 155.414 369.815 155.875 370.495 156.166C371.175 156.434 372.073 156.628 373.19 156.749C374.307 156.846 375.569 156.919 376.978 156.968C378.41 156.992 379.867 157.077 381.348 157.223C382.829 157.344 384.273 157.563 385.682 157.878C387.114 158.194 388.389 158.704 389.506 159.408C390.623 160.112 391.521 161.059 392.201 162.248C392.881 163.414 393.22 164.907 393.22 166.728C393.22 168.428 392.808 170.091 391.982 171.717C391.157 173.344 389.943 174.789 388.34 176.051C386.738 177.314 384.771 178.321 382.44 179.074C380.11 179.851 377.439 180.239 374.428 180.239C371.466 180.239 368.905 179.96 366.744 179.402C364.607 178.843 362.823 178.103 361.39 177.18C359.982 176.282 358.938 175.238 358.258 174.048C357.578 172.859 357.238 171.62 357.238 170.333C357.238 168.658 357.724 167.262 358.695 166.145C359.666 165.028 361.026 164.13 362.774 163.45C361.852 162.892 361.123 162.176 360.589 161.302C360.055 160.427 359.788 159.298 359.788 157.915C359.788 157.356 359.885 156.773 360.079 156.166C360.273 155.535 360.577 154.928 360.99 154.345C361.427 153.739 361.961 153.168 362.592 152.634C363.223 152.1 363.976 151.626 364.85 151.213C362.883 150.169 361.33 148.798 360.188 147.098C359.047 145.374 358.477 143.371 358.477 141.089C358.477 139.195 358.877 137.496 359.678 135.99C360.48 134.461 361.572 133.174 362.956 132.13C364.364 131.062 366.015 130.248 367.909 129.69C369.803 129.107 371.855 128.816 374.064 128.816C377.269 128.816 380.11 129.423 382.586 130.637H393.949Z" fill="#252525"/>
</svg>
